<?xml version="1.0" standalone="no"?>
<!DOCTYPE svg PUBLIC "-//W3C//DTD SVG 20010904//EN"
 "http://www.w3.org/TR/2001/REC-SVG-20010904/DTD/svg10.dtd">
<svg version="1.0" xmlns="http://www.w3.org/2000/svg"
 width="260.000000pt" height="260.000000pt" viewBox="0 0 260.000000 260.000000"
 preserveAspectRatio="xMidYMid meet">
<metadata>
Created by potrace 1.11, written by Peter Selinger 2001-2013
</metadata>
<g transform="translate(0.000000,260.000000) scale(0.100000,-0.100000)"
fill="#000000" stroke="none">
<path d="M1056 2307 c-19 -14 -21 -42 -10 -111 l7 -50 -30 34 -30 33 -22 -22
-23 -23 21 -22 c29 -31 26 -37 -10 -19 -17 9 -51 18 -75 21 -38 4 -44 2 -44
-14 0 -28 9 -36 72 -66 32 -15 75 -44 97 -64 39 -34 87 -101 80 -109 -2 -2
-24 -15 -48 -28 -65 -37 -144 -119 -180 -187 -18 -33 -29 -60 -25 -60 3 0 2
-6 -4 -12 -26 -32 -37 -299 -13 -343 2 -5 6 -25 8 -44 2 -19 9 -41 15 -48 6
-7 8 -13 5 -13 -5 0 25 -120 42 -162 6 -16 9 -28 6 -28 -2 0 5 -26 16 -57 11
-32 22 -66 24 -76 2 -10 7 -28 10 -38 5 -16 -6 -33 -49 -74 -30 -30 -58 -65
-62 -79 -3 -15 -14 -26 -23 -27 -35 -1 -54 -8 -92 -33 -43 -29 -69 -71 -73
-120 -2 -18 -5 -37 -8 -42 -10 -18 13 -72 47 -108 19 -21 36 -47 36 -59 5 -85
-5 -159 -26 -210 -8 -20 -15 -39 -15 -42 0 -3 256 -5 568 -5 l568 0 1 33 c2
70 4 73 20 32 26 -63 31 -65 138 -65 l96 0 -30 53 c-29 52 -75 175 -85 231 -4
22 0 33 14 43 33 23 63 93 63 144 -2 113 -108 220 -223 223 -28 1 -36 6 -38
24 -2 12 -8 22 -13 22 -5 0 -9 6 -9 14 0 8 -8 17 -17 21 -13 5 8 17 72 41 50
19 115 48 145 64 l55 28 -1 69 c-1 66 -10 177 -18 218 -2 11 -7 52 -12 90 -4
39 -8 72 -9 75 -2 8 -14 83 -19 120 -7 51 -17 109 -22 134 -3 11 -9 43 -14 70
-6 26 -17 71 -25 100 -9 28 -15 51 -14 51 1 0 -1 11 -6 25 -9 30 -57 77 -94
92 -87 36 -241 51 -356 35 -95 -13 -131 -20 -152 -28 -20 -7 -21 -6 -13 22 5
16 6 29 3 29 -3 0 -1 6 4 13 6 6 16 29 23 50 13 42 72 107 95 107 20 0 20 57
0 76 -32 33 -110 -28 -148 -116 l-15 -35 -1 32 c-1 18 8 55 18 83 19 50 19 50
-1 64 -27 19 -41 12 -66 -32 -23 -41 -22 -37 -23 -89 l-1 -38 -9 30 c-12 38
-18 71 -21 113 -3 39 -27 57 -52 39z"/>
</g>
</svg>
